# xmcd
#
# Track frame offsets: 
#        150
#        17777
#        43280
#        66655
#        67144
#        84163
#        100339
#        102656
#        120112
#        136684
#        143397
#        161801
#        164049
#        182125
#        197723
#        202002
#        228141
#        244420
#        250733
#
# Disc length: 3612 seconds
#
# Revision: 0
# Processed by: cddbd v1.5.2PL0 Copyright (c) Steve Scherf et al.
# Submitted via: ExactAudioCopyFreeDBPlugin 1.0
#
DISCID=140e1a13
DTITLE=Tinashe - Aquarius (Deluxe Edition)
DYEAR=2014
DGENRE=R&B
TTITLE0=Aquarius
TTITLE1=Bet (feat. Devonté Hynes)
TTITLE2=Cold Sweat
TTITLE3=Nightfall (Interlude)
TTITLE4=2 On (feat. ScHoolboy Q)
TTITLE5=How Many Times (feat Future)
TTITLE6=What is There to Lose (Interlude)
TTITLE7=Pretend (feat. A$AP Rocky)
TTITLE8=All Hands On Deck
TTITLE9=Indigo Child (Interlude)
TTITLE10=Far Side of the Moon
TTITLE11=The Calm (Interlude)
TTITLE12=Feels Like Vegas
TTITLE13=Thug Cry
TTITLE14=Deep in the Night (Interlude)
TTITLE15=Bated Brreath
TTITLE16=Wildfire
TTITLE17=The Storm (Outro)
TTITLE18=Watch Me Work
EXTD=
EXTT0=
EXTT1=
EXTT2=
EXTT3=
EXTT4=
EXTT5=
EXTT6=
EXTT7=
EXTT8=
EXTT9=
EXTT10=
EXTT11=
EXTT12=
EXTT13=
EXTT14=
EXTT15=
EXTT16=
EXTT17=
EXTT18=
PLAYORDER=
